<mxfile host="app.diagrams.net" modified="2022-03-03T08:24:48.805Z" agent="5.0 (Windows NT 10.0; Win64; x64) AppleWebKit/537.36 (KHTML, like Gecko) Chrome/98.0.4758.102 Safari/537.36" etag="29sFmHXd5CMNl4oIuXMn" version="16.5.6" type="github">
  <diagram id="KrzFKyJnl_7XDag67M4k" name="Page-1">
    <mxGraphModel dx="1038" dy="515" grid="1" gridSize="10" guides="1" tooltips="1" connect="1" arrows="1" fold="1" page="1" pageScale="1" pageWidth="827" pageHeight="1169" math="0" shadow="0">
      <root>
        <mxCell id="0" />
        <mxCell id="1" parent="0" />
        <mxCell id="Hg0RDzW1tKglAUxQImQ_-20" style="edgeStyle=orthogonalEdgeStyle;rounded=0;orthogonalLoop=1;jettySize=auto;html=1;fontColor=#FF0000;" edge="1" parent="1" source="Hg0RDzW1tKglAUxQImQ_-18" target="Hg0RDzW1tKglAUxQImQ_-7">
          <mxGeometry relative="1" as="geometry" />
        </mxCell>
        <mxCell id="Hg0RDzW1tKglAUxQImQ_-18" value="" style="rounded=0;whiteSpace=wrap;html=1;fillColor=#d5e8d4;gradientColor=#97d077;strokeColor=#82b366;" vertex="1" parent="1">
          <mxGeometry x="133" y="501.5" width="450" height="80" as="geometry" />
        </mxCell>
        <mxCell id="Hg0RDzW1tKglAUxQImQ_-2" value="Client&amp;nbsp;" style="text;html=1;strokeColor=none;fillColor=none;align=center;verticalAlign=middle;whiteSpace=wrap;rounded=0;fontStyle=1" vertex="1" parent="1">
          <mxGeometry x="225" y="70" width="60" height="30" as="geometry" />
        </mxCell>
        <mxCell id="Hg0RDzW1tKglAUxQImQ_-3" value="" style="dashed=0;outlineConnect=0;html=1;align=center;labelPosition=center;verticalLabelPosition=bottom;verticalAlign=top;shape=mxgraph.webicons.chrome;gradientColor=#DFDEDE" vertex="1" parent="1">
          <mxGeometry x="330" y="30" width="70" height="70" as="geometry" />
        </mxCell>
        <mxCell id="Hg0RDzW1tKglAUxQImQ_-21" style="edgeStyle=orthogonalEdgeStyle;rounded=0;orthogonalLoop=1;jettySize=auto;html=1;fontColor=#FF0000;" edge="1" parent="1" source="Hg0RDzW1tKglAUxQImQ_-4" target="Hg0RDzW1tKglAUxQImQ_-3">
          <mxGeometry relative="1" as="geometry" />
        </mxCell>
        <mxCell id="Hg0RDzW1tKglAUxQImQ_-4" value="" style="aspect=fixed;perimeter=ellipsePerimeter;html=1;align=center;shadow=0;dashed=0;spacingTop=3;image;image=img/lib/active_directory/web_server.svg;" vertex="1" parent="1">
          <mxGeometry x="345" y="160" width="40" height="50" as="geometry" />
        </mxCell>
        <mxCell id="Hg0RDzW1tKglAUxQImQ_-5" value="Web Server" style="text;html=1;strokeColor=none;fillColor=none;align=center;verticalAlign=middle;whiteSpace=wrap;rounded=0;fontStyle=1" vertex="1" parent="1">
          <mxGeometry x="210" y="170" width="90" height="30" as="geometry" />
        </mxCell>
        <mxCell id="Hg0RDzW1tKglAUxQImQ_-6" value="Nginx/Apache/IIS" style="text;html=1;strokeColor=none;fillColor=none;align=center;verticalAlign=middle;whiteSpace=wrap;rounded=0;fontStyle=1" vertex="1" parent="1">
          <mxGeometry x="450" y="170" width="120" height="30" as="geometry" />
        </mxCell>
        <mxCell id="Hg0RDzW1tKglAUxQImQ_-7" value="" style="aspect=fixed;perimeter=ellipsePerimeter;html=1;align=center;shadow=0;dashed=0;spacingTop=3;image;image=img/lib/active_directory/generic_server.svg;" vertex="1" parent="1">
          <mxGeometry x="330" y="330" width="56" height="100" as="geometry" />
        </mxCell>
        <mxCell id="Hg0RDzW1tKglAUxQImQ_-8" value="&lt;pre style=&quot;background-color: #ffffff ; color: #080808 ; font-family: &amp;quot;jetbrains mono&amp;quot; , monospace ; font-size: 9.8pt&quot;&gt;Gunicorn&lt;/pre&gt;" style="text;html=1;strokeColor=none;fillColor=none;align=center;verticalAlign=middle;whiteSpace=wrap;rounded=0;fontStyle=1" vertex="1" parent="1">
          <mxGeometry x="210" y="375" width="90" height="30" as="geometry" />
        </mxCell>
        <mxCell id="Hg0RDzW1tKglAUxQImQ_-10" value="" style="endArrow=classic;startArrow=classic;html=1;rounded=0;" edge="1" parent="1">
          <mxGeometry width="50" height="50" relative="1" as="geometry">
            <mxPoint x="360" y="320" as="sourcePoint" />
            <mxPoint x="360" y="220" as="targetPoint" />
          </mxGeometry>
        </mxCell>
        <mxCell id="Hg0RDzW1tKglAUxQImQ_-11" value="WSGI协议" style="text;html=1;strokeColor=none;fillColor=none;align=center;verticalAlign=middle;whiteSpace=wrap;rounded=0;fontStyle=1" vertex="1" parent="1">
          <mxGeometry x="270" y="260" width="90" height="30" as="geometry" />
        </mxCell>
        <mxCell id="Hg0RDzW1tKglAUxQImQ_-12" value="实现了WSGI协议" style="text;html=1;strokeColor=none;fillColor=none;align=center;verticalAlign=middle;whiteSpace=wrap;rounded=0;fontStyle=1;fontColor=#FF0000;" vertex="1" parent="1">
          <mxGeometry x="400" y="375" width="120" height="30" as="geometry" />
        </mxCell>
        <mxCell id="Hg0RDzW1tKglAUxQImQ_-14" value="" style="shape=image;html=1;verticalAlign=top;verticalLabelPosition=bottom;labelBackgroundColor=#ffffff;imageAspect=0;aspect=fixed;image=https://cdn4.iconfinder.com/data/icons/scripting-and-programming-languages/512/660277-Python_logo-128.png;fontColor=#FF0000;" vertex="1" parent="1">
          <mxGeometry x="140" y="510" width="63" height="63" as="geometry" />
        </mxCell>
        <mxCell id="Hg0RDzW1tKglAUxQImQ_-15" value="" style="shape=image;html=1;verticalAlign=top;verticalLabelPosition=bottom;labelBackgroundColor=#ffffff;imageAspect=0;aspect=fixed;image=https://cdn4.iconfinder.com/data/icons/scripting-and-programming-languages/512/660277-Python_logo-128.png;fontColor=#FF0000;" vertex="1" parent="1">
          <mxGeometry x="250" y="510" width="63" height="63" as="geometry" />
        </mxCell>
        <mxCell id="Hg0RDzW1tKglAUxQImQ_-16" value="" style="shape=image;html=1;verticalAlign=top;verticalLabelPosition=bottom;labelBackgroundColor=#ffffff;imageAspect=0;aspect=fixed;image=https://cdn4.iconfinder.com/data/icons/scripting-and-programming-languages/512/660277-Python_logo-128.png;fontColor=#FF0000;" vertex="1" parent="1">
          <mxGeometry x="397" y="510" width="63" height="63" as="geometry" />
        </mxCell>
        <mxCell id="Hg0RDzW1tKglAUxQImQ_-17" value="" style="shape=image;html=1;verticalAlign=top;verticalLabelPosition=bottom;labelBackgroundColor=#ffffff;imageAspect=0;aspect=fixed;image=https://cdn4.iconfinder.com/data/icons/scripting-and-programming-languages/512/660277-Python_logo-128.png;fontColor=#FF0000;" vertex="1" parent="1">
          <mxGeometry x="507" y="510" width="63" height="63" as="geometry" />
        </mxCell>
        <mxCell id="Hg0RDzW1tKglAUxQImQ_-19" value="&lt;pre style=&quot;background-color: #ffffff ; color: #080808 ; font-family: &amp;#34;jetbrains mono&amp;#34; , monospace ; font-size: 9.8pt&quot;&gt;Flask&lt;/pre&gt;" style="text;html=1;strokeColor=none;fillColor=none;align=center;verticalAlign=middle;whiteSpace=wrap;rounded=0;fontStyle=1" vertex="1" parent="1">
          <mxGeometry x="133" y="471.5" width="90" height="30" as="geometry" />
        </mxCell>
        <mxCell id="Hg0RDzW1tKglAUxQImQ_-23" style="edgeStyle=orthogonalEdgeStyle;rounded=0;orthogonalLoop=1;jettySize=auto;html=1;entryX=1;entryY=0.5;entryDx=0;entryDy=0;fontColor=#FF0000;" edge="1" parent="1" source="Hg0RDzW1tKglAUxQImQ_-22" target="Hg0RDzW1tKglAUxQImQ_-18">
          <mxGeometry relative="1" as="geometry" />
        </mxCell>
        <mxCell id="Hg0RDzW1tKglAUxQImQ_-22" value="" style="sketch=0;points=[[0.015,0.015,0],[0.985,0.015,0],[0.985,0.985,0],[0.015,0.985,0],[0.25,0,0],[0.5,0,0],[0.75,0,0],[1,0.25,0],[1,0.5,0],[1,0.75,0],[0.75,1,0],[0.5,1,0],[0.25,1,0],[0,0.75,0],[0,0.5,0],[0,0.25,0]];verticalLabelPosition=bottom;html=1;verticalAlign=top;aspect=fixed;align=center;pointerEvents=1;shape=mxgraph.cisco19.rect;prIcon=l2_switch_with_dual_supervisor;fillColor=#FAFAFA;strokeColor=#005073;fontColor=#FF0000;" vertex="1" parent="1">
          <mxGeometry x="650" y="490.75" width="53.42" height="101.5" as="geometry" />
        </mxCell>
        <mxCell id="Hg0RDzW1tKglAUxQImQ_-24" value="&lt;span style=&quot;color: rgb(77 , 77 , 77) ; font-family: , &amp;quot;sf ui text&amp;quot; , &amp;quot;arial&amp;quot; , &amp;quot;pingfang sc&amp;quot; , &amp;quot;hiragino sans gb&amp;quot; , &amp;quot;microsoft yahei&amp;quot; , &amp;quot;wenquanyi micro hei&amp;quot; , sans-serif ; font-size: 16px ; background-color: rgb(255 , 255 , 255)&quot;&gt;supervisor&amp;nbsp;&lt;/span&gt;" style="text;html=1;strokeColor=none;fillColor=none;align=center;verticalAlign=middle;whiteSpace=wrap;rounded=0;fontColor=#FF0000;fontStyle=1" vertex="1" parent="1">
          <mxGeometry x="631.71" y="600" width="90" height="30" as="geometry" />
        </mxCell>
        <mxCell id="Hg0RDzW1tKglAUxQImQ_-25" value="flask 进程管理" style="text;html=1;strokeColor=none;fillColor=none;align=center;verticalAlign=middle;whiteSpace=wrap;rounded=0;fontColor=#FF0000;fontStyle=1" vertex="1" parent="1">
          <mxGeometry x="630" y="630" width="90" height="30" as="geometry" />
        </mxCell>
      </root>
    </mxGraphModel>
  </diagram>
</mxfile>
